<svg width="37" height="37" viewBox="0 0 37 37" fill="none" xmlns="http://www.w3.org/2000/svg">
<path d="M7.70833 4.625H10.7917V7.70833H7.70833V15.4167C7.70833 16.2344 7.38348 17.0187 6.80525 17.5969C6.22701 18.1751 5.44275 18.5 4.625 18.5C5.44275 18.5 6.22701 18.8249 6.80525 19.4031C7.38348 19.9813 7.70833 20.7656 7.70833 21.5833V29.2917H10.7917V32.375H7.70833C6.05875 31.9587 4.625 30.9875 4.625 29.2917V23.125C4.625 22.3072 4.30015 21.523 3.72191 20.9448C3.14368 20.3665 2.35942 20.0417 1.54167 20.0417H0V16.9583H1.54167C2.35942 16.9583 3.14368 16.6335 3.72191 16.0552C4.30015 15.477 4.625 14.6928 4.625 13.875V7.70833C4.625 6.89058 4.94985 6.10632 5.52809 5.52809C6.10632 4.94985 6.89058 4.625 7.70833 4.625M29.2917 4.625C30.1094 4.625 30.8937 4.94985 31.4719 5.52809C32.0501 6.10632 32.375 6.89058 32.375 7.70833V13.875C32.375 14.6928 32.6999 15.477 33.2781 16.0552C33.8563 16.6335 34.6406 16.9583 35.4583 16.9583H37V20.0417H35.4583C34.6406 20.0417 33.8563 20.3665 33.2781 20.9448C32.6999 21.523 32.375 22.3072 32.375 23.125V29.2917C32.375 30.1094 32.0501 30.8937 31.4719 31.4719C30.8937 32.0501 30.1094 32.375 29.2917 32.375H26.2083V29.2917H29.2917V21.5833C29.2917 20.7656 29.6165 19.9813 30.1948 19.4031C30.773 18.8249 31.5572 18.5 32.375 18.5C31.5572 18.5 30.773 18.1751 30.1948 17.5969C29.6165 17.0187 29.2917 16.2344 29.2917 15.4167V7.70833H26.2083V4.625H29.2917ZM18.5 23.125C18.9089 23.125 19.301 23.2874 19.5901 23.5765C19.8792 23.8657 20.0417 24.2578 20.0417 24.6667C20.0417 25.0755 19.8792 25.4677 19.5901 25.7568C19.301 26.0459 18.9089 26.2083 18.5 26.2083C18.0911 26.2083 17.699 26.0459 17.4099 25.7568C17.1208 25.4677 16.9583 25.0755 16.9583 24.6667C16.9583 24.2578 17.1208 23.8657 17.4099 23.5765C17.699 23.2874 18.0911 23.125 18.5 23.125M12.3333 23.125C12.7422 23.125 13.1343 23.2874 13.4235 23.5765C13.7126 23.8657 13.875 24.2578 13.875 24.6667C13.875 25.0755 13.7126 25.4677 13.4235 25.7568C13.1343 26.0459 12.7422 26.2083 12.3333 26.2083C11.9245 26.2083 11.5323 26.0459 11.2432 25.7568C10.9541 25.4677 10.7917 25.0755 10.7917 24.6667C10.7917 24.2578 10.9541 23.8657 11.2432 23.5765C11.5323 23.2874 11.9245 23.125 12.3333 23.125ZM24.6667 23.125C25.0755 23.125 25.4677 23.2874 25.7568 23.5765C26.0459 23.8657 26.2083 24.2578 26.2083 24.6667C26.2083 25.0755 26.0459 25.4677 25.7568 25.7568C25.4677 26.0459 25.0755 26.2083 24.6667 26.2083C24.2578 26.2083 23.8657 26.0459 23.5765 25.7568C23.2874 25.4677 23.125 25.0755 23.125 24.6667C23.125 24.2578 23.2874 23.8657 23.5765 23.5765C23.8657 23.2874 24.2578 23.125 24.6667 23.125V23.125Z" fill="#FF6900"/>
</svg>
